<?xml version="1.0" encoding="UTF-8"?>
<svg id="Layer_2" data-name="Layer 2" xmlns="http://www.w3.org/2000/svg" viewBox="0 0 256 283.46">
  <defs>
    <style>
      .cls-1 {
        fill: #960202;
      }
    </style>
  </defs>
  <g id="Layer_1-2" data-name="Layer 1">
    <path class="cls-1" d="M100.8,65c-32.94,7.21-51.68,30.5-52.25,52.34-1.27,35.03-.34,44.27.1,74.19.17,11.67,4.98,50.27,1.54,50.96-7.75,1.55-44.52,2.44-49.25.51-2.32-.94.28-39.46.92-59.08.28-8.73.99-48.16,1.14-56.91C3.52,98.01-.51,9.55,2.32,7.27,5.75,4.48,108.24-2.8,110.07,1.15c3.9,8.41-63.84,16.58-60.97,34.64.27,4.87-3.55,36.28,6.86,24.16,169.16-144.02,319.95,173.62,60.17,210.59-7.43,3.53,2.62,8,.55,11.08-2.71,4.01-8.56.92-17.59-3.66-6.05-3.07.17-9.98,8.34-14.95,21.8-13.26,72.78-15.99,95.3-67.56,10.56-24.18,16.82-47.53,5.83-67.61-19.72-36.04-38.4-17.38-41.52-21.62-3.2-4.35,20.09-12.88-2.47-30.16-13.69-10.49-39.57-16.35-63.77-11.05Z"/>
  </g>
</svg>